<?xml version="1.0" encoding="UTF-8" standalone="no"?>
<svg width="32px" height="32px" viewBox="0 0 32 32" version="1.1" xmlns="http://www.w3.org/2000/svg" xmlns:xlink="http://www.w3.org/1999/xlink">
    <!-- Generator: Sketch 39.1 (31720) - http://www.bohemiancoding.com/sketch -->
    <title>icon_individuals</title>
    <desc>Created with Sketch.</desc>
    <defs>
        <circle id="path-1" cx="15" cy="15" r="15"></circle>
    </defs>
    <g id="Symbols" stroke="none" stroke-width="1" fill="none" fill-rule="evenodd">
        <g id="Icons/icon_individuals-generic">
            <g id="icon_individuals" transform="translate(1.000000, 1.000000)">
                <mask id="mask-2" fill="white">
                    <use xlink:href="#path-1"></use>
                </mask>
                <use id="Mask" stroke="#C1C1C1" stroke-width="2" fill="#C1C1C1" xlink:href="#path-1"></use>
                <g id="Page-1" mask="url(#mask-2)" fill="#FFFFFF">
                    <g transform="translate(-1.000000, 2.310345)" id="Fill-1">
                        <path d="M0,29.2182274 C0.10253608,28.7386533 0.216071389,28.2611395 0.305440123,27.7791354 C0.528280269,26.5770305 0.738904925,25.372654 0.956985788,24.1695982 C1.05708935,23.6175439 1.42778451,23.297775 1.91936543,23.1032617 C4.15294921,22.2194465 6.39367192,21.3534344 8.62022254,20.4525029 C9.04866366,20.2791737 9.42607469,19.9794267 9.82543131,19.7354134 C10.3695759,19.4030186 10.8651757,19.0196975 11.2476633,18.4954836 C11.3293643,18.3835407 11.5326385,18.3601907 11.70117,18.3254826 C11.9537292,17.8705264 11.9985722,17.3026765 12.3369571,16.8055635 C12.3147472,16.6437508 12.2710675,16.4193896 12.2559436,16.1931266 C12.2358488,15.8918475 12.1484367,15.6452457 11.9672138,15.3814746 C11.7621946,15.0830484 11.6724028,14.6911162 11.5903845,14.3268132 C11.5050876,13.948405 11.368126,13.6275796 11.1091682,13.3251912 C10.8873328,13.0661747 10.7089126,12.736527 10.6148375,12.4084641 C10.3754985,11.5735149 10.191473,10.7226117 9.99258786,9.87641016 C9.96487826,9.75855053 9.97444971,9.631129 9.97344497,9.5080922 C9.97164702,9.29693803 9.99221769,9.09629666 10.2746017,9.06396583 C10.1957034,8.71038693 10.1435629,8.36985658 10.0419786,8.04469923 C9.85504462,7.44636744 9.80702875,6.83783982 9.84505013,6.21874657 C9.91257905,5.11976227 10.0012074,4.02135909 10.3339341,2.96437318 C10.7478859,1.64969149 11.6649466,0.816327204 12.948895,0.385355042 C13.3531167,0.249639489 13.788115,0.181438329 14.2145995,0.140179533 C15.5037303,0.015452238 16.7940245,-0.0833364287 18.0890779,0.104467694 C18.7017561,0.193324666 19.2185612,0.486943602 19.7311358,0.792765843 C20.4598347,1.22754163 21.1705013,1.7044743 21.6314641,2.43360862 C21.8555734,2.78813843 22.0082406,3.21023546 22.0990371,3.62240079 C22.4879233,5.38770672 22.5191231,7.16405374 22.1661959,8.94214408 C22.1512306,9.0175827 22.1523411,9.09619101 22.1462069,9.1708372 C22.1768249,9.17950102 22.1958621,9.19207412 22.208342,9.18737242 C22.6040498,9.03844982 22.7353531,9.10057574 22.6735353,9.52578964 C22.5588895,10.3145141 22.385493,11.0956842 22.2129426,11.8747939 C22.068472,12.5271689 21.8128457,13.1277723 21.3110058,13.60349 C21.2190988,13.6906036 21.1896442,13.8533672 21.1532621,13.9871281 C21.0771665,14.2671702 21.0293092,14.5554535 20.9435364,14.8321674 C20.8821417,15.0301145 20.8187375,15.253155 20.683521,15.3965835 C20.4685072,15.6246955 20.4208086,15.8783235 20.4143043,16.1636484 C20.4102325,16.3395662 20.3920414,16.5153255 20.391354,16.6911905 C20.3908252,16.8105293 20.3315985,16.9642593 20.5446028,16.9902507 C20.5789754,16.9944242 20.6046227,17.106367 20.6264625,17.1711344 C20.7499394,17.5379203 20.8752672,17.9042308 20.9906533,18.2735525 C21.031213,18.4034569 21.0872138,18.4568134 21.2346987,18.4420215 C21.3146017,18.4339916 21.4344828,18.4821709 21.4821285,18.5456175 C22.2596364,19.581208 23.3599295,20.1400772 24.5200308,20.6081347 C26.2415159,21.3027194 27.9659623,21.989961 29.6895097,22.6792629 C30.1869076,22.8782137 30.6926606,23.0580936 31.1815974,23.2756929 C31.5533502,23.4412035 31.7388036,23.7720663 31.8279608,24.1596665 C32.0229856,25.0073472 32.2111887,25.8566656 32.4170012,26.7016521 C32.6126077,27.5048515 32.8265638,28.3036134 33.0343858,29.1038016 C33.049404,29.1615956 33.0800749,29.2153746 33.1034483,29.2710555 L33.1034483,29.3767119 C32.9802358,29.3794589 32.8570232,29.3846361 32.7337578,29.3846361 C21.9721758,29.3849531 11.2105409,29.3849531 0.448906026,29.3845833 C0.299305938,29.3845304 0.149652969,29.3794589 0,29.3767119 L0,29.2182274"></path>
                    </g>
                </g>
            </g>
        </g>
    </g>
</svg>